<mxfile host="Electron" modified="2024-03-22T00:13:41.331Z" agent="Mozilla/5.0 (Windows NT 10.0; Win64; x64) AppleWebKit/537.36 (KHTML, like Gecko) draw.io/22.1.2 Chrome/114.0.5735.289 Electron/25.9.4 Safari/537.36" etag="MCGgxzn_KD5HMc81aBtc" version="22.1.2" type="device">
  <diagram name="Página-1" id="k0lzHlLEI-LLzQQl2SBa">
    <mxGraphModel dx="1434" dy="836" grid="1" gridSize="10" guides="1" tooltips="1" connect="1" arrows="1" fold="1" page="1" pageScale="1" pageWidth="827" pageHeight="1169" math="0" shadow="0">
      <root>
        <mxCell id="0" />
        <mxCell id="1" parent="0" />
        <mxCell id="eHYoec0mcpPGCXueYWc6-17" value="" style="group" vertex="1" connectable="0" parent="1">
          <mxGeometry x="210" y="650" width="570" height="60" as="geometry" />
        </mxCell>
        <mxCell id="eHYoec0mcpPGCXueYWc6-8" value="Fluxo Secundário" style="rounded=0;whiteSpace=wrap;html=1;" vertex="1" parent="eHYoec0mcpPGCXueYWc6-17">
          <mxGeometry width="120" height="60" as="geometry" />
        </mxCell>
        <mxCell id="eHYoec0mcpPGCXueYWc6-16" value="" style="rounded=0;whiteSpace=wrap;html=1;" vertex="1" parent="eHYoec0mcpPGCXueYWc6-17">
          <mxGeometry x="120" width="450" height="60" as="geometry" />
        </mxCell>
        <mxCell id="eHYoec0mcpPGCXueYWc6-18" value="" style="group" vertex="1" connectable="0" parent="1">
          <mxGeometry x="210" y="590" width="570" height="60" as="geometry" />
        </mxCell>
        <mxCell id="eHYoec0mcpPGCXueYWc6-7" value="Fluxo principal" style="rounded=0;whiteSpace=wrap;html=1;" vertex="1" parent="eHYoec0mcpPGCXueYWc6-18">
          <mxGeometry width="120" height="60" as="geometry" />
        </mxCell>
        <mxCell id="eHYoec0mcpPGCXueYWc6-15" value="" style="rounded=0;whiteSpace=wrap;html=1;" vertex="1" parent="eHYoec0mcpPGCXueYWc6-18">
          <mxGeometry x="120" width="450" height="60" as="geometry" />
        </mxCell>
        <mxCell id="eHYoec0mcpPGCXueYWc6-19" value="" style="group" vertex="1" connectable="0" parent="1">
          <mxGeometry x="210" y="530" width="570" height="60" as="geometry" />
        </mxCell>
        <mxCell id="eHYoec0mcpPGCXueYWc6-6" value="Pós-condição" style="rounded=0;whiteSpace=wrap;html=1;" vertex="1" parent="eHYoec0mcpPGCXueYWc6-19">
          <mxGeometry width="120" height="60" as="geometry" />
        </mxCell>
        <mxCell id="eHYoec0mcpPGCXueYWc6-14" value="" style="rounded=0;whiteSpace=wrap;html=1;" vertex="1" parent="eHYoec0mcpPGCXueYWc6-19">
          <mxGeometry x="120" width="450" height="60" as="geometry" />
        </mxCell>
        <mxCell id="eHYoec0mcpPGCXueYWc6-20" value="" style="group" vertex="1" connectable="0" parent="1">
          <mxGeometry x="210" y="470" width="570" height="60" as="geometry" />
        </mxCell>
        <mxCell id="eHYoec0mcpPGCXueYWc6-5" value="Pré-condição" style="rounded=0;whiteSpace=wrap;html=1;" vertex="1" parent="eHYoec0mcpPGCXueYWc6-20">
          <mxGeometry width="120" height="60" as="geometry" />
        </mxCell>
        <mxCell id="eHYoec0mcpPGCXueYWc6-13" value="" style="rounded=0;whiteSpace=wrap;html=1;" vertex="1" parent="eHYoec0mcpPGCXueYWc6-20">
          <mxGeometry x="120" width="450" height="60" as="geometry" />
        </mxCell>
        <mxCell id="eHYoec0mcpPGCXueYWc6-21" value="" style="group" vertex="1" connectable="0" parent="1">
          <mxGeometry x="210" y="410" width="570" height="60" as="geometry" />
        </mxCell>
        <mxCell id="eHYoec0mcpPGCXueYWc6-4" value="Prioridade" style="rounded=0;whiteSpace=wrap;html=1;" vertex="1" parent="eHYoec0mcpPGCXueYWc6-21">
          <mxGeometry width="120" height="60" as="geometry" />
        </mxCell>
        <mxCell id="eHYoec0mcpPGCXueYWc6-12" value="" style="rounded=0;whiteSpace=wrap;html=1;" vertex="1" parent="eHYoec0mcpPGCXueYWc6-21">
          <mxGeometry x="120" width="450" height="60" as="geometry" />
        </mxCell>
        <mxCell id="eHYoec0mcpPGCXueYWc6-22" value="" style="group" vertex="1" connectable="0" parent="1">
          <mxGeometry x="210" y="350" width="570" height="60" as="geometry" />
        </mxCell>
        <mxCell id="eHYoec0mcpPGCXueYWc6-3" value="Atores" style="rounded=0;whiteSpace=wrap;html=1;" vertex="1" parent="eHYoec0mcpPGCXueYWc6-22">
          <mxGeometry width="120" height="60" as="geometry" />
        </mxCell>
        <mxCell id="eHYoec0mcpPGCXueYWc6-11" value="" style="rounded=0;whiteSpace=wrap;html=1;" vertex="1" parent="eHYoec0mcpPGCXueYWc6-22">
          <mxGeometry x="120" width="450" height="60" as="geometry" />
        </mxCell>
        <mxCell id="eHYoec0mcpPGCXueYWc6-23" value="" style="group" vertex="1" connectable="0" parent="1">
          <mxGeometry x="210" y="290" width="570" height="60" as="geometry" />
        </mxCell>
        <mxCell id="eHYoec0mcpPGCXueYWc6-2" value="Função" style="rounded=0;whiteSpace=wrap;html=1;" vertex="1" parent="eHYoec0mcpPGCXueYWc6-23">
          <mxGeometry width="120" height="60" as="geometry" />
        </mxCell>
        <mxCell id="eHYoec0mcpPGCXueYWc6-10" value="" style="rounded=0;whiteSpace=wrap;html=1;" vertex="1" parent="eHYoec0mcpPGCXueYWc6-23">
          <mxGeometry x="120" width="450" height="60" as="geometry" />
        </mxCell>
        <mxCell id="eHYoec0mcpPGCXueYWc6-24" value="" style="group" vertex="1" connectable="0" parent="1">
          <mxGeometry x="210" y="230" width="570" height="60" as="geometry" />
        </mxCell>
        <mxCell id="eHYoec0mcpPGCXueYWc6-1" value="Identificação" style="rounded=0;whiteSpace=wrap;html=1;" vertex="1" parent="eHYoec0mcpPGCXueYWc6-24">
          <mxGeometry width="120" height="60" as="geometry" />
        </mxCell>
        <mxCell id="eHYoec0mcpPGCXueYWc6-9" value="" style="rounded=0;whiteSpace=wrap;html=1;" vertex="1" parent="eHYoec0mcpPGCXueYWc6-24">
          <mxGeometry x="120" width="450" height="60" as="geometry" />
        </mxCell>
      </root>
    </mxGraphModel>
  </diagram>
</mxfile>
